<svg width="21" height="31" viewBox="0 0 21 31" fill="none" xmlns="http://www.w3.org/2000/svg">
<path d="M0 25.8333C0 22.9799 2.35053 20.6667 5.25 20.6667H10.5V25.8333C10.5 28.6868 8.14947 31 5.25 31C2.35053 31 0 28.6868 0 25.8333Z" fill="#24CB71"/>
<path d="M10.5 0V10.3333H15.75C18.6495 10.3333 21 8.02011 21 5.16667C21 2.31322 18.6495 0 15.75 0H10.5Z" fill="#FF7237"/>
<path d="M15.7063 20.6667C18.6058 20.6667 20.9563 18.3535 20.9563 15.5C20.9563 12.6465 18.6058 10.3333 15.7063 10.3333C12.8068 10.3333 10.4563 12.6465 10.4563 15.5C10.4563 18.3535 12.8068 20.6667 15.7063 20.6667Z" fill="#00B6FF"/>
<path d="M0 5.16667C0 8.02011 2.35053 10.3333 5.25 10.3333H10.5V0H5.25C2.35053 0 0 2.31322 0 5.16667Z" fill="#FF3737"/>
<path d="M0 15.5C0 18.3534 2.35053 20.6667 5.25 20.6667H10.5V10.3333H5.25C2.35053 10.3333 0 12.6466 0 15.5Z" fill="#874FFF"/>
</svg>
