<svg width="26" height="26" viewBox="0 0 26 26" fill="none" xmlns="http://www.w3.org/2000/svg">
<path d="M12.9066 0C6.30581 0 6.71775 2.86244 6.71775 2.86244L6.72588 5.82806H13.0244V6.71775H4.22256C4.22256 6.71775 0 6.23838 0 12.8993C0 19.5585 3.68631 19.3229 3.68631 19.3229H5.88656V16.2321C5.88656 16.2321 5.76794 12.5458 9.51438 12.5458H15.7609C15.7609 12.5458 19.2709 12.6027 19.2709 9.15363V3.45069C19.2709 3.45069 19.8039 0 12.9066 0ZM9.43313 1.99388C10.0596 1.99388 10.5666 2.50088 10.5666 3.12731C10.5666 3.75375 10.0596 4.26075 9.43313 4.26075C9.28422 4.26097 9.13674 4.23179 8.99913 4.17491C8.86152 4.11802 8.73648 4.03454 8.63119 3.92925C8.5259 3.82396 8.44242 3.69893 8.38553 3.56131C8.32865 3.4237 8.29948 3.27622 8.29969 3.12731C8.29969 2.50088 8.80669 1.99388 9.43313 1.99388Z" fill="url(#paint0_linear_446_33)"/>
<path d="M13.0933 25.8643C19.6941 25.8643 19.2822 23.0019 19.2822 23.0019L19.274 20.0363H12.9755V19.1466H21.7765C21.7765 19.1466 25.9999 19.626 25.9999 12.9659C25.9999 6.30583 22.3136 6.54227 22.3136 6.54227H20.1134V9.63221C20.1134 9.63221 20.232 13.3185 16.4855 13.3185H10.239C10.239 13.3185 6.72903 13.2616 6.72903 16.7107V22.4136C6.72903 22.4136 6.19603 25.8643 13.0933 25.8643ZM16.5668 23.8705C16.4179 23.8707 16.2704 23.8415 16.1328 23.7846C15.9952 23.7277 15.8701 23.6443 15.7648 23.539C15.6596 23.4337 15.5761 23.3086 15.5192 23.171C15.4623 23.0334 15.4331 22.8859 15.4333 22.737C15.4333 22.1114 15.9403 21.6044 16.5668 21.6044C17.1932 21.6044 17.7002 22.1106 17.7002 22.737C17.7002 23.3643 17.1932 23.8705 16.5668 23.8705Z" fill="url(#paint1_linear_446_33)"/>
<defs>
<linearGradient id="paint0_linear_446_33" x1="2.49844" y1="2.26038" x2="15.3546" y2="15.1596" gradientUnits="userSpaceOnUse">
<stop stop-color="#387EB8"/>
<stop offset="1" stop-color="#366994"/>
</linearGradient>
<linearGradient id="paint1_linear_446_33" x1="10.4072" y1="10.4666" x2="24.2149" y2="23.695" gradientUnits="userSpaceOnUse">
<stop stop-color="#FFE052"/>
<stop offset="1" stop-color="#FFC331"/>
</linearGradient>
</defs>
</svg>
