<svg width="24" height="24" viewBox="0 0 24 24" fill="none" xmlns="http://www.w3.org/2000/svg">
<path d="M24 12C24 18.6274 18.6274 24 12 24C5.37258 24 0 18.6274 0 12C0 5.37258 5.37258 0 12 0C18.6274 0 24 5.37258 24 12Z" fill="#38BDF8"/>
<path fill-rule="evenodd" clip-rule="evenodd" d="M12 6C9.33335 6 7.66665 7.44444 7 10.3333C8 8.88889 9.16665 8.34722 10.5 8.70833C11.2607 8.91416 11.8044 9.5124 12.4063 10.174C13.3867 11.2522 14.5215 12.5 17 12.5C19.6667 12.5 21.3333 11.0556 22 8.16667C21 9.61111 19.8333 10.1528 18.5 9.79166C17.7393 9.58583 17.1956 8.98759 16.5937 8.32596C15.6133 7.24784 14.4785 6 12 6ZM7 12.5C4.33333 12.5 2.66667 13.9444 2 16.8333C3 15.3889 4.16667 14.8472 5.5 15.2083C6.26074 15.4145 6.80445 16.0124 7.40629 16.674C8.38665 17.7521 9.52148 19 12 19C14.6667 19 16.3333 17.5555 17 14.6667C16 16.1111 14.8333 16.6528 13.5 16.2917C12.7393 16.0858 12.1956 15.4876 11.5937 14.8259C10.6133 13.7478 9.47852 12.5 7 12.5Z" fill="white"/>
</svg>
