<svg width="26" height="20" viewBox="0 0 26 20" fill="none" xmlns="http://www.w3.org/2000/svg">
<g clip-path="url(#clip0_4117_432)">
<path d="M25.914 2.96001L13.7009 19.739C13.4483 20.085 12.8014 20.087 12.545 19.743L0.0884451 2.96201C-0.190103 2.58601 0.227719 2.13101 0.782212 2.20701L13.0084 3.88601C13.0865 3.89701 13.1659 3.89701 13.244 3.88601L25.2151 2.21001C25.7669 2.13201 26.1874 2.58401 25.914 2.96001Z" fill="url(#paint0_linear_4117_432)"/>
<path d="M18.8332 0.00498882L9.79474 1.36599C9.64635 1.38799 9.53571 1.48499 9.5266 1.60099L8.97081 8.81499C8.95779 8.98499 9.16085 9.11699 9.37692 9.07899L11.893 8.63299C12.1286 8.59099 12.3407 8.75099 12.2926 8.93299L11.5454 11.744C11.4947 11.933 11.7264 12.095 11.9672 12.039L13.5213 11.676C13.7621 11.62 13.9938 11.782 13.943 11.972L12.7546 16.39C12.6804 16.666 13.1581 16.817 13.3586 16.58L13.4914 16.422L20.8573 5.12999C20.9809 4.94099 20.7675 4.72499 20.498 4.76499L17.9078 5.14899C17.6644 5.18499 17.4574 5.01099 17.5264 4.82799L19.2172 0.324989C19.2849 0.142989 19.0766 -0.0320112 18.8332 0.00498882Z" fill="url(#paint1_linear_4117_432)"/>
</g>
<defs>
<linearGradient id="paint0_linear_4117_432" x1="6.4922" y1="-2.18699" x2="16.9742" y2="16.3421" gradientUnits="userSpaceOnUse">
<stop stop-color="#41D1FF"/>
<stop offset="1" stop-color="#BD34FE"/>
</linearGradient>
<linearGradient id="paint1_linear_4117_432" x1="13.6601" y1="0.222769" x2="15.2971" y2="14.839" gradientUnits="userSpaceOnUse">
<stop stop-color="#FFEA83"/>
<stop offset="0.083" stop-color="#FFDD35"/>
<stop offset="1" stop-color="#FFA800"/>
</linearGradient>
<clipPath id="clip0_4117_432">
<rect width="26" height="20" fill="white"/>
</clipPath>
</defs>
</svg>
